<svg xmlns="http://www.w3.org/2000/svg" version="1.1" xmlns:xlink="http://www.w3.org/1999/xlink" xmlns:svgjs="http://svgjs.com/svgjs" width="1440" height="560" preserveAspectRatio="none" viewBox="0 0 1440 560"><g mask="url(&quot;#SvgjsMask1170&quot;)" fill="none"><rect width="1440" height="560" x="0" y="0" fill="rgba(224, 224, 221, 1)"></rect><path d="M0,413.131C78.581,412.736,151.82,381.451,219.699,341.858C290.026,300.837,354.524,250.722,397.249,181.417C443.738,106.007,476.925,20.56,472.313,-67.908C467.477,-160.687,427.598,-247.801,371.032,-321.501C312.125,-398.252,236.225,-461.661,145.116,-494.218C50.805,-527.92,-57.553,-548.243,-148.963,-507.32C-237.815,-467.542,-266.14,-359.302,-326.628,-283.025C-383.818,-210.906,-478.626,-161.75,-494.847,-71.148C-511.16,19.969,-461.842,110.365,-410.895,187.649C-364.843,257.507,-294.477,303.822,-221.124,344.075C-152.029,381.992,-78.814,413.527,0,413.131" fill="#c7c7c1"></path><path d="M1440 1061.524C1531.734 1071.2649999999999 1589.0140000000001 962.4649999999999 1667.621 914.185 1748.394 864.575 1856.02 852.931 1908.33 773.879 1962.848 691.491 1972.909 582.825 1950.57 486.591 1929.0140000000001 393.727 1860.521 320.504 1788.571 257.961 1723.664 201.54000000000002 1644.758 167.41500000000002 1560.99 147.945 1480.891 129.32799999999997 1398.615 127.221 1319.287 148.88799999999998 1238.896 170.84500000000003 1158.799 206.20600000000002 1107.429 271.826 1057.094 336.124 1057.562 422.605 1042.224 502.80899999999997 1026.08 587.229 974.1410000000001 678.4929999999999 1015.2239999999999 753.989 1056.492 829.8240000000001 1171.53 818.302 1241.462 868.932 1317.688 924.119 1346.419 1051.587 1440 1061.524" fill="#fafaf9"></path></g><defs><mask id="SvgjsMask1170"><rect width="1440" height="560" fill="#ffffff"></rect></mask></defs></svg>