<?xml version="1.0" standalone="no"?><svg xmlns="http://www.w3.org/2000/svg" viewBox="0 0 1440 320"><path fill="#E0E0DD" fill-opacity="0.98" d="M0,128L20,149.3C40,171,80,213,120,224C160,235,200,213,240,202.7C280,192,320,192,360,181.3C400,171,440,149,480,154.7C520,160,560,192,600,176C640,160,680,96,720,96C760,96,800,160,840,160C880,160,920,96,960,74.7C1000,53,1040,75,1080,112C1120,149,1160,203,1200,218.7C1240,235,1280,213,1320,181.3C1360,149,1400,107,1420,85.3L1440,64L1440,320L1420,320C1400,320,1360,320,1320,320C1280,320,1240,320,1200,320C1160,320,1120,320,1080,320C1040,320,1000,320,960,320C920,320,880,320,840,320C800,320,760,320,720,320C680,320,640,320,600,320C560,320,520,320,480,320C440,320,400,320,360,320C320,320,280,320,240,320C200,320,160,320,120,320C80,320,40,320,20,320L0,320Z"></path></svg>